<svg id="visual" viewBox="0 0 900 600" width="900" height="600" xmlns="http://www.w3.org/2000/svg" xmlns:xlink="http://www.w3.org/1999/xlink" version="1.1"><rect x="0" y="0" width="900" height="600" fill="#ffffff"></rect><path d="M302 0L370 0L370 32L327 32L327 63L325 63L325 95L356 95L356 126L306 126L306 158L458 158L458 189L298 189L298 221L377 221L377 253L338 253L338 284L276 284L276 316L317 316L317 347L348 347L348 379L445 379L445 411L399 411L399 442L295 442L295 474L423 474L423 505L362 505L362 537L393 537L393 568L382 568L382 600L0 600L0 568L0 568L0 537L0 537L0 505L0 505L0 474L0 474L0 442L0 442L0 411L0 411L0 379L0 379L0 347L0 347L0 316L0 316L0 284L0 284L0 253L0 253L0 221L0 221L0 189L0 189L0 158L0 158L0 126L0 126L0 95L0 95L0 63L0 63L0 32L0 32L0 0L0 0Z" fill="#00c4d0"></path><path d="M242 0L382 0L382 32L300 32L300 63L310 63L310 95L397 95L397 126L259 126L259 158L245 158L245 189L371 189L371 221L396 221L396 253L218 253L218 284L262 284L262 316L379 316L379 347L266 347L266 379L308 379L308 411L362 411L362 442L334 442L334 474L319 474L319 505L218 505L218 537L293 537L293 568L360 568L360 600L0 600L0 568L0 568L0 537L0 537L0 505L0 505L0 474L0 474L0 442L0 442L0 411L0 411L0 379L0 379L0 347L0 347L0 316L0 316L0 284L0 284L0 253L0 253L0 221L0 221L0 189L0 189L0 158L0 158L0 126L0 126L0 95L0 95L0 63L0 63L0 32L0 32L0 0L0 0Z" fill="#00b5bd"></path><path d="M178 0L332 0L332 32L292 32L292 63L261 63L261 95L299 95L299 126L323 126L323 158L316 158L316 189L180 189L180 221L313 221L313 253L321 253L321 284L196 284L196 316L315 316L315 347L241 347L241 379L293 379L293 411L313 411L313 442L315 442L315 474L177 474L177 505L188 505L188 537L322 537L322 568L278 568L278 600L0 600L0 568L0 568L0 537L0 537L0 505L0 505L0 474L0 474L0 442L0 442L0 411L0 411L0 379L0 379L0 347L0 347L0 316L0 316L0 284L0 284L0 253L0 253L0 221L0 221L0 189L0 189L0 158L0 158L0 126L0 126L0 95L0 95L0 63L0 63L0 32L0 32L0 0L0 0Z" fill="#00a7ab"></path><path d="M150 0L126 0L126 32L239 32L239 63L239 63L239 95L232 95L232 126L179 126L179 158L160 158L160 189L177 189L177 221L215 221L215 253L204 253L204 284L170 284L170 316L124 316L124 347L186 347L186 379L156 379L156 411L226 411L226 442L198 442L198 474L204 474L204 505L229 505L229 537L224 537L224 568L179 568L179 600L0 600L0 568L0 568L0 537L0 537L0 505L0 505L0 474L0 474L0 442L0 442L0 411L0 411L0 379L0 379L0 347L0 347L0 316L0 316L0 284L0 284L0 253L0 253L0 221L0 221L0 189L0 189L0 158L0 158L0 126L0 126L0 95L0 95L0 63L0 63L0 32L0 32L0 0L0 0Z" fill="#009999"></path><path d="M190 0L108 0L108 32L102 32L102 63L181 63L181 95L151 95L151 126L158 126L158 158L133 158L133 189L172 189L172 221L175 221L175 253L87 253L87 284L142 284L142 316L102 316L102 347L158 347L158 379L135 379L135 411L159 411L159 442L166 442L166 474L91 474L91 505L88 505L88 537L113 537L113 568L116 568L116 600L0 600L0 568L0 568L0 537L0 537L0 505L0 505L0 474L0 474L0 442L0 442L0 411L0 411L0 379L0 379L0 347L0 347L0 316L0 316L0 284L0 284L0 253L0 253L0 221L0 221L0 189L0 189L0 158L0 158L0 126L0 126L0 95L0 95L0 63L0 63L0 32L0 32L0 0L0 0Z" fill="#008b88"></path><path d="M36 0L67 0L67 32L85 32L85 63L33 63L33 95L35 95L35 126L41 126L41 158L40 158L40 189L53 189L53 221L50 221L50 253L53 253L53 284L108 284L108 316L43 316L43 347L86 347L86 379L92 379L92 411L48 411L48 442L65 442L65 474L118 474L118 505L79 505L79 537L49 537L49 568L32 568L32 600L0 600L0 568L0 568L0 537L0 537L0 505L0 505L0 474L0 474L0 442L0 442L0 411L0 411L0 379L0 379L0 347L0 347L0 316L0 316L0 284L0 284L0 253L0 253L0 221L0 221L0 189L0 189L0 158L0 158L0 126L0 126L0 95L0 95L0 63L0 63L0 32L0 32L0 0L0 0Z" fill="#007d78"></path></svg>